<?xml version="1.0" encoding="UTF-8"?>
<svg xmlns="http://www.w3.org/2000/svg" width="139" height="81">
   <defs>
      <style type="text/css">
    @namespace "http://www.w3.org/2000/svg";
    .line                 {fill: none; stroke: #3A0027; stroke-width: 1;}
    .bold-line            {stroke: #14000E; shape-rendering: crispEdges; stroke-width: 2;}
    .thin-line            {stroke: #1F0014; shape-rendering: crispEdges}
    .filled               {fill: #3A0027; stroke: none;}
    text.terminal         {font-family: Verdana, Sans-serif;
                            font-size: 12px;
                            fill: #14000E;
                            font-weight: bold;
                          }
    text.nonterminal      {font-family: Verdana, Sans-serif;
                            font-size: 12px;
                            fill: #1A0011;
                            font-weight: normal;
                          }
    text.regexp           {font-family: Verdana, Sans-serif;
                            font-size: 12px;
                            fill: #1F0014;
                            font-weight: normal;
                          }
    rect, circle, polygon {fill: #3A0027; stroke: #3A0027;}
    rect.terminal         {fill: #FF80D4; stroke: #3A0027; stroke-width: 1;}
    rect.nonterminal      {fill: #FFBAE8; stroke: #3A0027; stroke-width: 1;}
    rect.text             {fill: none; stroke: none;}
    polygon.regexp        {fill: #FFD7F2; stroke: #3A0027; stroke-width: 1;}
  </style>
   </defs>
   <polygon points="9 17 1 13 1 21"/>
   <polygon points="17 17 9 13 9 21"/>
   <a xmlns:xlink="http://www.w3.org/1999/xlink"
       xlink:href="#foo"
       xlink:title="foo">
      <rect x="51" y="3" width="40" height="32"/>
      <rect x="49" y="1" width="40" height="32" class="nonterminal"/>
      <text class="nonterminal" x="59" y="21">foo</text>
   </a>
   <a xmlns:xlink="http://www.w3.org/1999/xlink"
       xlink:href="#bar"
       xlink:title="bar">
      <rect x="51" y="47" width="40" height="32"/>
      <rect x="49" y="45" width="40" height="32" class="nonterminal"/>
      <text class="nonterminal" x="59" y="65">bar</text>
   </a>
   <path class="line"
          d="m17 17 h2 m20 0 h10 m40 0 h10 m-80 0 h20 m60 0 h20 m-100 0 q10 0 10 10 m80 0 q0 -10 10 -10 m-90 10 v24 m80 0 v-24 m-80 24 q0 10 10 10 m60 0 q10 0 10 -10 m-70 10 h10 m40 0 h10 m23 -44 h-3"/>
   <polygon points="129 17 137 13 137 21"/>
   <polygon points="129 17 121 13 121 21"/>
</svg>
