<?xml version="1.0" encoding="UTF-8"?>
<svg xmlns="http://www.w3.org/2000/svg" width="139" height="57">
   <defs>
      <style type="text/css">
    @namespace "http://www.w3.org/2000/svg";
    .line                 {fill: none; stroke: #3A0027; stroke-width: 1;}
    .bold-line            {stroke: #14000E; shape-rendering: crispEdges; stroke-width: 2;}
    .thin-line            {stroke: #1F0014; shape-rendering: crispEdges}
    .filled               {fill: #3A0027; stroke: none;}
    text.terminal         {font-family: Verdana, Sans-serif;
                            font-size: 12px;
                            fill: #14000E;
                            font-weight: bold;
                          }
    text.nonterminal      {font-family: Verdana, Sans-serif;
                            font-size: 12px;
                            fill: #1A0011;
                            font-weight: normal;
                          }
    text.regexp           {font-family: Verdana, Sans-serif;
                            font-size: 12px;
                            fill: #1F0014;
                            font-weight: normal;
                          }
    rect, circle, polygon {fill: #3A0027; stroke: #3A0027;}
    rect.terminal         {fill: #FF80D4; stroke: #3A0027; stroke-width: 1;}
    rect.nonterminal      {fill: #FFBAE8; stroke: #3A0027; stroke-width: 1;}
    rect.text             {fill: none; stroke: none;}
    polygon.regexp        {fill: #FFD7F2; stroke: #3A0027; stroke-width: 1;}
  </style>
   </defs>
   <polygon points="9 5 1 1 1 9"/>
   <polygon points="17 5 9 1 9 9"/>
   <a xmlns:xlink="http://www.w3.org/1999/xlink"
       xlink:href="#foo"
       xlink:title="foo">
      <rect x="51" y="23" width="40" height="32"/>
      <rect x="49" y="21" width="40" height="32" class="nonterminal"/>
      <text class="nonterminal" x="59" y="41">foo</text>
   </a>
   <path class="line"
          d="m17 5 h2 m20 0 h10 m0 0 h50 m-80 0 h20 m60 0 h20 m-100 0 q10 0 10 10 m80 0 q0 -10 10 -10 m-90 10 v12 m80 0 v-12 m-80 12 q0 10 10 10 m60 0 q10 0 10 -10 m-70 10 h10 m40 0 h10 m23 -32 h-3"/>
   <polygon points="129 5 137 1 137 9"/>
   <polygon points="129 5 121 1 121 9"/>
</svg>
