<?xml version="1.0" encoding="UTF-8"?>
<svg xmlns="http://www.w3.org/2000/svg" width="903" height="69">
   <defs>
      <style type="text/css">
    @namespace "http://www.w3.org/2000/svg";
    .line                 {fill: none; stroke: #3A0027; stroke-width: 1;}
    .bold-line            {stroke: #14000E; shape-rendering: crispEdges; stroke-width: 2;}
    .thin-line            {stroke: #1F0014; shape-rendering: crispEdges}
    .filled               {fill: #3A0027; stroke: none;}
    text.terminal         {font-family: Verdana, Sans-serif;
                            font-size: 12px;
                            fill: #14000E;
                            font-weight: bold;
                          }
    text.nonterminal      {font-family: Verdana, Sans-serif;
                            font-size: 12px;
                            fill: #1A0011;
                            font-weight: normal;
                          }
    text.regexp           {font-family: Verdana, Sans-serif;
                            font-size: 12px;
                            fill: #1F0014;
                            font-weight: normal;
                          }
    rect, circle, polygon {fill: #3A0027; stroke: #3A0027;}
    rect.terminal         {fill: #FF80D4; stroke: #3A0027; stroke-width: 1;}
    rect.nonterminal      {fill: #FFBAE8; stroke: #3A0027; stroke-width: 1;}
    rect.text             {fill: none; stroke: none;}
    polygon.regexp        {fill: #FFD7F2; stroke: #3A0027; stroke-width: 1;}
  </style>
   </defs>
   <polygon points="9 17 1 13 1 21"/>
   <polygon points="17 17 9 13 9 21"/>
   <rect x="51" y="35" width="56" height="32" rx="10"/>
   <rect x="49"
          y="33"
          width="56"
          height="32"
          class="terminal"
          rx="10"/>
   <text class="terminal" x="59" y="53">const</text>
   <rect x="147" y="3" width="74" height="32" rx="10"/>
   <rect x="145"
          y="1"
          width="74"
          height="32"
          class="terminal"
          rx="10"/>
   <text class="terminal" x="155" y="21">function</text>
   <a xmlns:xlink="http://www.w3.org/1999/xlink"
       xlink:href="#identifier"
       xlink:title="identifier">
      <rect x="241" y="3" width="76" height="32"/>
      <rect x="239" y="1" width="76" height="32" class="nonterminal"/>
      <text class="nonterminal" x="249" y="21">identifier</text>
   </a>
   <a xmlns:xlink="http://www.w3.org/1999/xlink"
       xlink:href="#generic_list"
       xlink:title="generic_list">
      <rect x="357" y="35" width="92" height="32"/>
      <rect x="355" y="33" width="92" height="32" class="nonterminal"/>
      <text class="nonterminal" x="365" y="53">generic_list</text>
   </a>
   <a xmlns:xlink="http://www.w3.org/1999/xlink"
       xlink:href="#paremeter_list"
       xlink:title="paremeter_list">
      <rect x="489" y="3" width="112" height="32"/>
      <rect x="487" y="1" width="112" height="32" class="nonterminal"/>
      <text class="nonterminal" x="497" y="21">paremeter_list</text>
   </a>
   <rect x="621" y="3" width="36" height="32" rx="10"/>
   <rect x="619"
          y="1"
          width="36"
          height="32"
          class="terminal"
          rx="10"/>
   <text class="terminal" x="629" y="21">-&gt;</text>
   <a xmlns:xlink="http://www.w3.org/1999/xlink"
       xlink:href="#return_list"
       xlink:title="return_list">
      <rect x="697" y="35" width="86" height="32"/>
      <rect x="695" y="33" width="86" height="32" class="nonterminal"/>
      <text class="nonterminal" x="705" y="53">return_list</text>
   </a>
   <a xmlns:xlink="http://www.w3.org/1999/xlink"
       xlink:href="#block"
       xlink:title="block">
      <rect x="823" y="3" width="52" height="32"/>
      <rect x="821" y="1" width="52" height="32" class="nonterminal"/>
      <text class="nonterminal" x="831" y="21">block</text>
   </a>
   <path class="line"
          d="m17 17 h2 m20 0 h10 m0 0 h66 m-96 0 h20 m76 0 h20 m-116 0 q10 0 10 10 m96 0 q0 -10 10 -10 m-106 10 v12 m96 0 v-12 m-96 12 q0 10 10 10 m76 0 q10 0 10 -10 m-86 10 h10 m56 0 h10 m20 -32 h10 m74 0 h10 m0 0 h10 m76 0 h10 m20 0 h10 m0 0 h102 m-132 0 h20 m112 0 h20 m-152 0 q10 0 10 10 m132 0 q0 -10 10 -10 m-142 10 v12 m132 0 v-12 m-132 12 q0 10 10 10 m112 0 q10 0 10 -10 m-122 10 h10 m92 0 h10 m20 -32 h10 m112 0 h10 m0 0 h10 m36 0 h10 m20 0 h10 m0 0 h96 m-126 0 h20 m106 0 h20 m-146 0 q10 0 10 10 m126 0 q0 -10 10 -10 m-136 10 v12 m126 0 v-12 m-126 12 q0 10 10 10 m106 0 q10 0 10 -10 m-116 10 h10 m86 0 h10 m20 -32 h10 m52 0 h10 m3 0 h-3"/>
   <polygon points="893 17 901 13 901 21"/>
   <polygon points="893 17 885 13 885 21"/>
</svg>
