<?xml version="1.0" encoding="UTF-8"?>
<svg xmlns="http://www.w3.org/2000/svg" width="455" height="129">
   <defs>
      <style type="text/css">
    @namespace "http://www.w3.org/2000/svg";
    .line                 {fill: none; stroke: #3A0027; stroke-width: 1;}
    .bold-line            {stroke: #14000E; shape-rendering: crispEdges; stroke-width: 2;}
    .thin-line            {stroke: #1F0014; shape-rendering: crispEdges}
    .filled               {fill: #3A0027; stroke: none;}
    text.terminal         {font-family: Verdana, Sans-serif;
                            font-size: 12px;
                            fill: #14000E;
                            font-weight: bold;
                          }
    text.nonterminal      {font-family: Verdana, Sans-serif;
                            font-size: 12px;
                            fill: #1A0011;
                            font-weight: normal;
                          }
    text.regexp           {font-family: Verdana, Sans-serif;
                            font-size: 12px;
                            fill: #1F0014;
                            font-weight: normal;
                          }
    rect, circle, polygon {fill: #3A0027; stroke: #3A0027;}
    rect.terminal         {fill: #FF80D4; stroke: #3A0027; stroke-width: 1;}
    rect.nonterminal      {fill: #FFBAE8; stroke: #3A0027; stroke-width: 1;}
    rect.text             {fill: none; stroke: none;}
    polygon.regexp        {fill: #FFD7F2; stroke: #3A0027; stroke-width: 1;}
  </style>
   </defs>
   <polygon points="9 61 1 57 1 65"/>
   <polygon points="17 61 9 57 9 65"/>
   <rect x="31" y="47" width="26" height="32" rx="10"/>
   <rect x="29"
          y="45"
          width="26"
          height="32"
          class="terminal"
          rx="10"/>
   <text class="terminal" x="39" y="65">[</text>
   <a xmlns:xlink="http://www.w3.org/1999/xlink"
       xlink:href="#generic_parameter"
       xlink:title="generic_parameter">
      <rect x="117" y="47" width="140" height="32"/>
      <rect x="115" y="45" width="140" height="32" class="nonterminal"/>
      <text class="nonterminal" x="125" y="65">generic_parameter</text>
   </a>
   <rect x="117" y="3" width="24" height="32" rx="10"/>
   <rect x="115"
          y="1"
          width="24"
          height="32"
          class="terminal"
          rx="10"/>
   <text class="terminal" x="125" y="21">,</text>
   <rect x="317" y="79" width="24" height="32" rx="10"/>
   <rect x="315"
          y="77"
          width="24"
          height="32"
          class="terminal"
          rx="10"/>
   <text class="terminal" x="325" y="97">,</text>
   <rect x="401" y="47" width="26" height="32" rx="10"/>
   <rect x="399"
          y="45"
          width="26"
          height="32"
          class="terminal"
          rx="10"/>
   <text class="terminal" x="409" y="65">]</text>
   <path class="line"
          d="m17 61 h2 m0 0 h10 m26 0 h10 m40 0 h10 m140 0 h10 m-180 0 l20 0 m-1 0 q-9 0 -9 -10 l0 -24 q0 -10 10 -10 m160 44 l20 0 m-20 0 q10 0 10 -10 l0 -24 q0 -10 -10 -10 m-160 0 h10 m24 0 h10 m0 0 h116 m40 44 h10 m0 0 h34 m-64 0 h20 m44 0 h20 m-84 0 q10 0 10 10 m64 0 q0 -10 10 -10 m-74 10 v12 m64 0 v-12 m-64 12 q0 10 10 10 m44 0 q10 0 10 -10 m-54 10 h10 m24 0 h10 m-284 -32 h20 m284 0 h20 m-324 0 q10 0 10 10 m304 0 q0 -10 10 -10 m-314 10 v46 m304 0 v-46 m-304 46 q0 10 10 10 m284 0 q10 0 10 -10 m-294 10 h10 m0 0 h274 m20 -66 h10 m26 0 h10 m3 0 h-3"/>
   <polygon points="445 61 453 57 453 65"/>
   <polygon points="445 61 437 57 437 65"/>
</svg>
