<?xml version="1.0" encoding="UTF-8"?>
<svg xmlns="http://www.w3.org/2000/svg" width="481" height="113">
   <defs>
      <style type="text/css">
    @namespace "http://www.w3.org/2000/svg";
    .line                 {fill: none; stroke: #3A0027; stroke-width: 1;}
    .bold-line            {stroke: #14000E; shape-rendering: crispEdges; stroke-width: 2;}
    .thin-line            {stroke: #1F0014; shape-rendering: crispEdges}
    .filled               {fill: #3A0027; stroke: none;}
    text.terminal         {font-family: Verdana, Sans-serif;
                            font-size: 12px;
                            fill: #14000E;
                            font-weight: bold;
                          }
    text.nonterminal      {font-family: Verdana, Sans-serif;
                            font-size: 12px;
                            fill: #1A0011;
                            font-weight: normal;
                          }
    text.regexp           {font-family: Verdana, Sans-serif;
                            font-size: 12px;
                            fill: #1F0014;
                            font-weight: normal;
                          }
    rect, circle, polygon {fill: #3A0027; stroke: #3A0027;}
    rect.terminal         {fill: #FF80D4; stroke: #3A0027; stroke-width: 1;}
    rect.nonterminal      {fill: #FFBAE8; stroke: #3A0027; stroke-width: 1;}
    rect.text             {fill: none; stroke: none;}
    polygon.regexp        {fill: #FFD7F2; stroke: #3A0027; stroke-width: 1;}
  </style>
   </defs>
   <polygon points="9 17 1 13 1 21"/>
   <polygon points="17 17 9 13 9 21"/>
   <rect x="51" y="35" width="46" height="32" rx="10"/>
   <rect x="49"
          y="33"
          width="46"
          height="32"
          class="terminal"
          rx="10"/>
   <text class="terminal" x="59" y="53">mut</text>
   <rect x="51" y="79" width="56" height="32" rx="10"/>
   <rect x="49"
          y="77"
          width="56"
          height="32"
          class="terminal"
          rx="10"/>
   <text class="terminal" x="59" y="97">const</text>
   <a xmlns:xlink="http://www.w3.org/1999/xlink"
       xlink:href="#identifier"
       xlink:title="identifier">
      <rect x="147" y="3" width="76" height="32"/>
      <rect x="145" y="1" width="76" height="32" class="nonterminal"/>
      <text class="nonterminal" x="155" y="21">identifier</text>
   </a>
   <rect x="263" y="35" width="24" height="32" rx="10"/>
   <rect x="261"
          y="33"
          width="24"
          height="32"
          class="terminal"
          rx="10"/>
   <text class="terminal" x="271" y="53">:</text>
   <a xmlns:xlink="http://www.w3.org/1999/xlink"
       xlink:href="#type_expression"
       xlink:title="type_expression">
      <rect x="307" y="35" width="126" height="32"/>
      <rect x="305" y="33" width="126" height="32" class="nonterminal"/>
      <text class="nonterminal" x="315" y="53">type_expression</text>
   </a>
   <path class="line"
          d="m17 17 h2 m20 0 h10 m0 0 h66 m-96 0 h20 m76 0 h20 m-116 0 q10 0 10 10 m96 0 q0 -10 10 -10 m-106 10 v12 m96 0 v-12 m-96 12 q0 10 10 10 m76 0 q10 0 10 -10 m-86 10 h10 m46 0 h10 m0 0 h10 m-86 -10 v20 m96 0 v-20 m-96 20 v24 m96 0 v-24 m-96 24 q0 10 10 10 m76 0 q10 0 10 -10 m-86 10 h10 m56 0 h10 m20 -76 h10 m76 0 h10 m20 0 h10 m0 0 h180 m-210 0 h20 m190 0 h20 m-230 0 q10 0 10 10 m210 0 q0 -10 10 -10 m-220 10 v12 m210 0 v-12 m-210 12 q0 10 10 10 m190 0 q10 0 10 -10 m-200 10 h10 m24 0 h10 m0 0 h10 m126 0 h10 m23 -32 h-3"/>
   <polygon points="471 17 479 13 479 21"/>
   <polygon points="471 17 463 13 463 21"/>
</svg>
