<?xml version="1.0" encoding="UTF-8"?>
<svg xmlns="http://www.w3.org/2000/svg" width="439" height="173">
   <defs>
      <style type="text/css">
    @namespace "http://www.w3.org/2000/svg";
    .line                 {fill: none; stroke: #3A0027; stroke-width: 1;}
    .bold-line            {stroke: #14000E; shape-rendering: crispEdges; stroke-width: 2;}
    .thin-line            {stroke: #1F0014; shape-rendering: crispEdges}
    .filled               {fill: #3A0027; stroke: none;}
    text.terminal         {font-family: Verdana, Sans-serif;
                            font-size: 12px;
                            fill: #14000E;
                            font-weight: bold;
                          }
    text.nonterminal      {font-family: Verdana, Sans-serif;
                            font-size: 12px;
                            fill: #1A0011;
                            font-weight: normal;
                          }
    text.regexp           {font-family: Verdana, Sans-serif;
                            font-size: 12px;
                            fill: #1F0014;
                            font-weight: normal;
                          }
    rect, circle, polygon {fill: #3A0027; stroke: #3A0027;}
    rect.terminal         {fill: #FF80D4; stroke: #3A0027; stroke-width: 1;}
    rect.nonterminal      {fill: #FFBAE8; stroke: #3A0027; stroke-width: 1;}
    rect.text             {fill: none; stroke: none;}
    polygon.regexp        {fill: #FFD7F2; stroke: #3A0027; stroke-width: 1;}
  </style>
   </defs>
   <polygon points="9 17 1 13 1 21"/>
   <polygon points="17 17 9 13 9 21"/>
   <a xmlns:xlink="http://www.w3.org/1999/xlink"
       xlink:href="#type_expr"
       xlink:title="type_expr">
      <rect x="51" y="3" width="84" height="32"/>
      <rect x="49" y="1" width="84" height="32" class="nonterminal"/>
      <text class="nonterminal" x="59" y="21">type_expr</text>
   </a>
   <rect x="51" y="91" width="26" height="32" rx="10"/>
   <rect x="49"
          y="89"
          width="26"
          height="32"
          class="terminal"
          rx="10"/>
   <text class="terminal" x="59" y="109">(</text>
   <a xmlns:xlink="http://www.w3.org/1999/xlink"
       xlink:href="#type_expr"
       xlink:title="type_expr">
      <rect x="137" y="91" width="84" height="32"/>
      <rect x="135" y="89" width="84" height="32" class="nonterminal"/>
      <text class="nonterminal" x="145" y="109">type_expr</text>
   </a>
   <rect x="137" y="47" width="24" height="32" rx="10"/>
   <rect x="135"
          y="45"
          width="24"
          height="32"
          class="terminal"
          rx="10"/>
   <text class="terminal" x="145" y="65">,</text>
   <rect x="281" y="123" width="24" height="32" rx="10"/>
   <rect x="279"
          y="121"
          width="24"
          height="32"
          class="terminal"
          rx="10"/>
   <text class="terminal" x="289" y="141">,</text>
   <rect x="365" y="91" width="26" height="32" rx="10"/>
   <rect x="363"
          y="89"
          width="26"
          height="32"
          class="terminal"
          rx="10"/>
   <text class="terminal" x="373" y="109">)</text>
   <path class="line"
          d="m17 17 h2 m20 0 h10 m84 0 h10 m0 0 h256 m-380 0 h20 m360 0 h20 m-400 0 q10 0 10 10 m380 0 q0 -10 10 -10 m-390 10 v68 m380 0 v-68 m-380 68 q0 10 10 10 m360 0 q10 0 10 -10 m-370 10 h10 m26 0 h10 m40 0 h10 m84 0 h10 m-124 0 l20 0 m-1 0 q-9 0 -9 -10 l0 -24 q0 -10 10 -10 m104 44 l20 0 m-20 0 q10 0 10 -10 l0 -24 q0 -10 -10 -10 m-104 0 h10 m24 0 h10 m0 0 h60 m40 44 h10 m0 0 h34 m-64 0 h20 m44 0 h20 m-84 0 q10 0 10 10 m64 0 q0 -10 10 -10 m-74 10 v12 m64 0 v-12 m-64 12 q0 10 10 10 m44 0 q10 0 10 -10 m-54 10 h10 m24 0 h10 m-228 -32 h20 m228 0 h20 m-268 0 q10 0 10 10 m248 0 q0 -10 10 -10 m-258 10 v46 m248 0 v-46 m-248 46 q0 10 10 10 m228 0 q10 0 10 -10 m-238 10 h10 m0 0 h218 m20 -66 h10 m26 0 h10 m23 -88 h-3"/>
   <polygon points="429 17 437 13 437 21"/>
   <polygon points="429 17 421 13 421 21"/>
</svg>
